<?xml version="1.0" standalone="no"?>
<!DOCTYPE svg PUBLIC "-//W3C//DTD SVG 20010904//EN"
 "http://www.w3.org/TR/2001/REC-SVG-20010904/DTD/svg10.dtd">
<svg version="1.0" xmlns="http://www.w3.org/2000/svg"
 width="838.000000pt" height="838.000000pt" viewBox="0 0 838.000000 838.000000"
 preserveAspectRatio="xMidYMid meet">
<metadata>
Created by potrace 1.14, written by Peter Selinger 2001-2017
</metadata>
<g transform="translate(0.000000,838.000000) scale(0.100000,-0.100000)"
fill="#000000" stroke="none">
<path d="M3892 8005 c-16 -7 -32 -20 -35 -28 -3 -9 -22 -23 -42 -33 -20 -9
-43 -27 -52 -40 -11 -18 -79 -52 -90 -46 -2 1 -22 -6 -45 -14 -24 -9 -50 -17
-58 -19 -8 -2 -39 -13 -68 -24 -41 -15 -60 -18 -80 -10 -41 16 -62 5 -149 -79
-70 -67 -83 -85 -89 -120 -5 -33 -16 -50 -48 -77 -59 -51 -135 -108 -180 -135
-34 -20 -40 -21 -50 -9 -11 15 -37 13 -67 -6 -18 -11 -99 -117 -119 -155 -7
-13 -12 -42 -12 -63 1 -24 -7 -58 -22 -87 -45 -88 -69 -192 -81 -347 -3 -39
-12 -84 -20 -99 -11 -21 -13 -54 -10 -129 5 -140 11 -162 63 -234 26 -36 50
-70 54 -77 5 -7 1 -28 -7 -48 -8 -19 -15 -47 -15 -61 0 -34 40 -95 87 -133 35
-28 45 -30 101 -28 58 2 62 1 70 -23 32 -90 44 -187 24 -200 -10 -6 -13 -229
-3 -246 3 -5 6 -50 7 -98 0 -48 6 -93 12 -99 6 -6 8 -17 5 -24 -3 -8 0 -14 6
-14 6 0 11 -13 11 -29 0 -21 6 -32 20 -36 11 -3 20 -13 20 -21 0 -8 7 -14 15
-14 8 0 15 -3 15 -7 0 -13 47 -63 53 -57 5 5 10 -12 21 -81 17 -110 151 -428
230 -545 43 -64 56 -77 109 -116 26 -19 47 -39 47 -45 0 -6 6 -17 13 -24 6 -8
17 -20 23 -28 12 -14 14 -267 3 -267 -7 0 -16 -79 -21 -185 -1 -27 -5 -52 -8
-55 -3 -3 -10 -18 -15 -34 -6 -16 -13 -29 -18 -28 -4 2 -17 -7 -29 -18 -12
-11 -25 -20 -30 -20 -4 0 -8 -7 -8 -15 0 -8 -3 -14 -7 -13 -10 4 -57 -29 -95
-64 -16 -16 -38 -28 -49 -28 -11 0 -22 -7 -25 -15 -4 -8 -17 -15 -31 -15 -13
0 -31 -7 -39 -15 -9 -8 -24 -15 -34 -15 -10 0 -22 -5 -25 -10 -4 -6 -10 -8
-15 -5 -5 3 -11 1 -15 -5 -3 -5 -19 -10 -35 -10 -16 0 -32 -5 -35 -10 -4 -6
-10 -8 -15 -5 -5 3 -11 1 -15 -5 -3 -5 -24 -10 -46 -10 -21 0 -39 -4 -39 -8 0
-10 -5 -11 -85 -18 -33 -3 -65 -10 -72 -16 -7 -5 -17 -7 -22 -4 -5 4 -12 2
-16 -4 -3 -5 -21 -10 -40 -10 -19 0 -36 -4 -40 -9 -3 -6 -14 -8 -25 -6 -11 2
-22 0 -25 -6 -4 -5 -16 -9 -28 -9 -12 0 -31 -7 -41 -15 -11 -8 -27 -15 -37
-15 -9 0 -22 -7 -29 -15 -7 -8 -25 -15 -41 -15 -16 0 -29 -5 -29 -10 0 -6 -11
-15 -25 -20 -14 -5 -25 -14 -25 -20 0 -5 -7 -10 -15 -10 -8 0 -27 -12 -43 -28
-16 -15 -38 -35 -48 -44 -11 -9 -25 -23 -31 -30 -7 -7 -24 -24 -38 -38 -14
-13 -25 -29 -25 -34 0 -4 -14 -36 -31 -70 -47 -92 -79 -182 -79 -224 0 -94
-14 -185 -30 -207 -4 -5 -11 -28 -15 -50 -5 -22 -9 -45 -11 -52 -1 -6 -5 -30
-8 -53 -3 -22 -9 -48 -14 -58 -5 -9 -10 -51 -11 -92 -4 -135 -8 -176 -21 -199
-7 -13 -14 -49 -15 -80 -2 -31 -8 -68 -14 -83 -5 -15 -10 -51 -10 -80 0 -29
-3 -64 -6 -78 -5 -23 -8 -47 -19 -186 -6 -66 -16 -137 -22 -146 -2 -4 -7 -53
-10 -110 -3 -57 -10 -118 -16 -136 -5 -18 -11 -69 -13 -115 -2 -45 -7 -107
-11 -137 -4 -30 -7 -77 -6 -105 0 -27 -3 -64 -9 -80 -12 -39 -20 -139 -18
-235 1 -41 1 -84 0 -95 0 -11 -2 -82 -3 -158 l-3 -137 356 1 355 0 18 187 c10
102 20 195 22 207 2 11 7 43 9 70 3 28 9 75 12 105 4 30 7 70 7 88 1 17 4 32
8 32 4 0 7 10 7 23 -1 12 1 32 4 44 3 12 9 53 12 90 4 37 9 71 11 74 1 3 6 28
9 55 4 27 13 76 20 109 7 33 11 63 9 67 -3 5 -1 8 3 8 5 0 10 12 11 27 1 16 6
42 12 58 5 17 11 41 14 55 2 14 9 45 16 70 7 25 13 50 14 55 18 81 48 146 62
133 6 -7 16 -100 18 -178 2 -36 5 -85 9 -110 4 -25 9 -133 13 -240 3 -107 7
-222 9 -255 1 -33 6 -127 9 -210 4 -82 10 -193 12 -245 3 -52 7 -133 9 -180 2
-47 3 -97 4 -112 l1 -27 1362 2 1363 2 1 50 c1 54 12 323 19 475 2 52 7 133
10 180 3 47 8 193 11 325 7 321 8 341 20 356 6 8 11 53 10 102 -1 109 23 115
49 12 2 -5 17 -63 34 -129 17 -65 33 -128 35 -140 2 -11 9 -39 15 -61 6 -22
12 -51 15 -65 2 -14 5 -25 6 -25 2 0 21 -111 25 -150 2 -11 6 -45 9 -75 4 -30
9 -80 10 -110 2 -30 8 -73 14 -95 12 -41 16 -65 27 -170 4 -33 8 -71 10 -85 2
-14 7 -47 11 -74 4 -27 8 -68 10 -90 4 -68 15 -190 18 -211 3 -20 11 -20 352
-22 326 -3 350 -1 351 15 3 30 3 394 -1 487 -4 116 -19 268 -33 340 -3 17 -7
62 -9 100 -4 88 -11 167 -24 270 -5 44 -12 98 -15 120 -7 55 -27 148 -35 160
-3 6 -6 33 -6 60 1 28 -2 53 -7 56 -4 3 -7 44 -8 92 0 47 -5 103 -10 124 -15
59 -19 94 -19 151 0 30 -4 52 -10 52 -6 0 -10 12 -9 28 1 15 -1 47 -6 72 -4
25 -9 70 -11 100 -6 82 -10 105 -18 118 -4 7 -7 37 -7 67 0 30 -4 55 -9 55 -9
0 -22 73 -24 133 -1 21 -7 41 -13 45 -6 4 -14 19 -16 32 -2 14 -9 38 -15 53
-7 16 -12 36 -12 45 0 9 -7 26 -15 36 -8 11 -15 30 -15 42 0 13 -8 27 -17 33
-10 5 -17 21 -18 38 0 15 -6 28 -12 28 -7 0 -20 11 -30 25 -9 14 -23 31 -30
38 -7 7 -13 17 -13 22 0 14 -60 70 -75 70 -8 0 -18 6 -22 13 -4 7 -20 20 -35
30 -16 10 -28 24 -28 33 0 11 -8 15 -27 13 -16 -2 -49 7 -75 20 -27 12 -54 24
-60 25 -7 2 -21 6 -30 10 -9 4 -23 9 -32 10 -8 1 -18 5 -22 8 -3 4 -12 4 -20
1 -8 -3 -14 0 -14 6 0 7 -20 11 -49 11 -30 0 -53 5 -60 14 -11 13 -64 21 -178
27 -24 2 -43 6 -43 11 0 4 -8 8 -18 8 -10 0 -22 3 -26 7 -3 4 -13 8 -21 9 -8
1 -27 9 -43 16 -16 8 -36 14 -45 12 -9 -1 -17 2 -17 7 0 5 -16 9 -35 9 -24 0
-35 5 -35 15 0 9 -9 15 -24 15 -13 0 -26 7 -30 15 -3 8 -13 15 -21 15 -9 0
-28 13 -42 30 -13 17 -31 30 -39 30 -7 0 -18 9 -24 20 -6 11 -14 19 -18 17 -7
-3 -59 45 -54 51 1 1 0 1 -1 0 -2 -2 -11 3 -21 11 -11 9 -13 17 -6 26 5 6 7
15 4 18 -10 9 -23 84 -29 157 -6 83 -12 133 -20 192 -7 45 -6 48 42 105 82 97
135 192 139 252 1 18 6 36 11 40 7 5 24 35 74 131 29 54 108 253 135 340 9 29
8 24 18 77 8 42 14 51 89 133 47 52 67 82 67 106 0 8 5 25 12 37 6 12 13 73
15 136 2 63 8 121 12 130 13 26 5 134 -12 168 -10 18 -17 42 -17 53 0 30 33
154 43 158 4 2 4 8 1 14 -4 7 5 8 27 2 80 -18 144 11 196 89 33 50 36 85 10
133 -16 31 -16 32 23 85 62 85 79 123 86 191 12 104 6 189 -14 225 -6 12 -12
32 -11 45 2 45 -11 161 -22 202 -6 23 -13 51 -15 64 -6 31 -34 102 -51 129 -8
12 -16 47 -18 78 -4 62 -34 117 -102 191 -45 49 -65 57 -89 39 -24 -17 -42 -8
-150 73 -102 76 -129 102 -130 127 -1 24 -33 95 -43 95 -4 0 -33 26 -66 58
-78 77 -92 84 -132 67 -17 -7 -34 -10 -38 -7 -4 4 -10 7 -13 8 -15 2 -72 18
-170 50 -78 25 -108 40 -128 63 -14 16 -35 33 -47 37 -12 3 -31 18 -43 31 -15
19 -33 27 -67 30 -54 6 -73 -5 -82 -47 -8 -35 -14 -36 -192 -32 -121 3 -133 5
-133 21 0 29 -35 65 -63 66 -14 1 -39 -4 -55 -10z"/>
</g>
</svg>
